<?xml version="1.0" standalone="no"?>
<!DOCTYPE svg PUBLIC "-//W3C//DTD SVG 20010904//EN"
 "http://www.w3.org/TR/2001/REC-SVG-20010904/DTD/svg10.dtd">
<svg version="1.0" xmlns="http://www.w3.org/2000/svg"
 width="383.000000pt" height="75.000000pt" viewBox="0 0 383.000000 75.000000"
 preserveAspectRatio="xMidYMid meet">

<g transform="translate(0.000000,75.000000) scale(0.100000,-0.100000)"
fill="#000000" stroke="none">
<path d="M1330 291 l0 -251 50 0 50 0 0 100 0 100 63 0 62 0 53 -96 c30 -52
59 -97 67 -100 7 -3 33 -4 58 -2 l46 3 -60 99 c-33 54 -58 101 -55 104 3 3 15
10 27 16 43 21 64 63 64 125 0 67 -19 102 -68 128 -26 14 -65 18 -194 21
l-163 4 0 -251z m304 143 c21 -20 21 -78 0 -95 -10 -8 -52 -15 -110 -17 l-94
-4 0 66 0 66 94 0 c73 0 98 -4 110 -16z"/>
<path d="M1840 538 c0 -2 -1 -113 -1 -248 l-1 -245 46 -3 46 -3 0 250 0 251
-45 0 c-25 0 -45 -1 -45 -2z"/>
<path d="M2195 535 c-5 -2 -27 -6 -47 -10 -79 -13 -136 -92 -145 -204 -7 -88
11 -163 50 -208 50 -57 78 -66 220 -71 l127 -5 0 47 0 46 -105 0 c-118 0 -148
10 -167 54 -19 46 -16 174 5 213 25 46 47 55 163 61 l104 5 0 38 0 39 -97 -1
c-54 0 -102 -2 -108 -4z"/>
<path d="M2477 533 c-4 -3 -7 -116 -7 -250 l0 -243 50 0 50 0 0 250 0 250 -43
0 c-24 0 -47 -3 -50 -7z"/>
<path d="M3738 473 l-3 -68 -86 -5 c-100 -6 -132 -22 -160 -83 -40 -90 -11
-210 61 -251 27 -16 58 -21 157 -24 l123 -4 0 251 0 251 -45 0 -44 0 -3 -67z
m0 -250 l3 -103 -61 0 c-51 0 -65 4 -85 25 -20 19 -25 34 -25 78 0 80 31 109
115 104 l50 -2 3 -102z"/>
<path d="M2730 388 c-107 -54 -131 -199 -49 -293 38 -43 85 -58 164 -53 67 4
122 34 147 81 33 62 27 162 -14 220 -46 65 -165 87 -248 45z m159 -82 c31 -33
38 -94 16 -139 -19 -42 -60 -62 -105 -52 -60 13 -90 108 -55 175 17 33 27 38
81 39 31 1 46 -5 63 -23z"/>
<path d="M3072 263 c7 -205 16 -215 204 -221 l124 -4 0 181 0 181 -45 0 -45 0
0 -140 0 -140 -51 0 c-88 0 -89 1 -89 150 l0 130 -51 0 -52 0 5 -137z"/>
</g>
</svg>
